<?xml version="1.0" encoding="UTF-8" standalone="no"?>
<!-- Created with Inkscape (http://www.inkscape.org/) -->

<svg
   width="275.30817mm"
   height="261.28329mm"
   viewBox="0 0 275.30817 261.28329"
   version="1.1"
   id="svg5"
   inkscape:version="1.2.2 (b0a8486541, 2022-12-01)"
   sodipodi:docname="logo.svg"
   xmlns:inkscape="http://www.inkscape.org/namespaces/inkscape"
   xmlns:sodipodi="http://sodipodi.sourceforge.net/DTD/sodipodi-0.dtd"
   xmlns="http://www.w3.org/2000/svg"
   xmlns:svg="http://www.w3.org/2000/svg">
  <sodipodi:namedview
     id="namedview7"
     pagecolor="#ffffff"
     bordercolor="#666666"
     borderopacity="1.0"
     inkscape:pageshadow="2"
     inkscape:pageopacity="0.0"
     inkscape:pagecheckerboard="0"
     inkscape:document-units="mm"
     showgrid="false"
     inkscape:zoom="0.29888117"
     inkscape:cx="650.7603"
     inkscape:cy="429.93675"
     inkscape:window-width="1499"
     inkscape:window-height="616"
     inkscape:window-x="0"
     inkscape:window-y="101"
     inkscape:window-maximized="0"
     inkscape:current-layer="layer2"
     fit-margin-top="0"
     fit-margin-left="0"
     fit-margin-right="0"
     fit-margin-bottom="0"
     inkscape:showpageshadow="2"
     inkscape:deskcolor="#d1d1d1" />
  <defs
     id="defs2">
    <rect
       x="1057.4041"
       y="786.93494"
       width="1093.7428"
       height="192.54634"
       id="rect9472" />
    <rect
       x="1057.4041"
       y="786.93494"
       width="1093.7428"
       height="192.54634"
       id="rect1274" />
    <rect
       x="1057.4041"
       y="786.93494"
       width="1093.7428"
       height="192.54634"
       id="rect864" />
  </defs>
  <g
     inkscape:groupmode="layer"
     id="layer4"
     inkscape:label="circle" />
  <g
     inkscape:groupmode="layer"
     id="layer2"
     inkscape:label="location">
    <g
       fill-rule="evenodd"
       id="g12"
       transform="matrix(0.93528081,0,0,0.93528081,198.08792,-73.812368)"
       style="fill:#01b3ef;fill-opacity:1"
       inkscape:export-filename="/home/roeman/Documents/finalist/project/logo/g12.png"
       inkscape:export-xdpi="96"
       inkscape:export-ydpi="96">
      <path
         d="m -56.64773,296.86411 c -17.725348,20.47113 -32.54927,33.47517 -32.726861,33.65227 -0.633315,0.5515 -1.42453,0.83017 -2.21179,0.83017 -0.791159,0 -1.601821,-0.27866 -2.231301,-0.84962 -0.177332,-0.15785 -14.919198,-13.31934 -32.549268,-33.63282 -33.10101,5.01963 -56.06299,17.03392 -56.06299,29.44331 0,7.82626 9.268,15.78823 25.41292,21.83703 17.42952,6.53968 40.68883,10.13903 65.466704,10.13903 24.777871,0 48.020223,-3.59535 65.466701,-10.13903 16.1663761,-6.06626 25.41293712,-14.01126 25.41293712,-21.83703 C -0.68826888,313.89803 -23.610716,301.9017 -56.653866,296.86411 Z"
         id="path2"
         style="fill:#01b3ef;fill-opacity:1;stroke-width:0.49887" />
      <path
         d="m -178.60543,273.88065 c 0,9.16492 -7.42801,16.59489 -16.59489,16.59489 -9.1649,0 -16.59481,-7.42997 -16.59481,-16.59489 0,-9.16687 7.42991,-16.59489 16.59481,-16.59489 9.16688,0 16.59489,7.42802 16.59489,16.59489"
         id="path4"
         style="fill:#01b3ef;fill-opacity:1;stroke-width:0.49176" />
      <path
         d="m 43.071379,241.3479 c 0,7.43216 -6.025348,13.45602 -13.456019,13.45602 -7.432161,0 -13.458008,-6.02336 -13.458008,-13.45602 0,-7.43217 6.025352,-13.45602 13.458008,-13.45602 7.430671,0 13.456019,6.02336 13.456019,13.45602"
         id="path6"
         style="fill:#01b3ef;fill-opacity:1;stroke-width:0.49887" />
      <path
         style="fill:#01b3ef;fill-opacity:1;stroke-width:0.49887"
         d="m -91.610473,78.920175 c -49.758287,0 -90.230657,40.472875 -90.230657,90.230665 0,38.12064 25.07808,78.53221 46.10445,105.7256 18.81488,24.32591 37.802863,42.64543 44.147989,48.55405 v -0.006 c 6.243855,-5.73101 24.641881,-23.27917 43.058658,-47.11217 16.187899,-20.92303 35.00042,-50.17084 43.1325381,-81.22147 l 0.07385,-8.35539 -12.3554321,8.77188 -1.023994,0.71913 -0.249177,0.17944 -0.359981,0.2354 c -0.240293,0.16215 -0.490248,0.31004 -0.746964,0.44322 -1.011413,0.54721 -2.112594,0.90803 -3.251428,1.06535 -2.184828,0.32042 -4.413301,-0.10225 -6.328087,-1.20151 -0.641234,-0.36794 -1.229559,-0.80981 -1.76628,-1.30459 -10.217085,23.0913 -33.332672,39.25128 -60.163597,39.25128 -36.263365,0 -65.766215,-29.48411 -65.766215,-65.76592 0,-36.26336 29.50386,-65.76621 65.766215,-65.76621 25.103709,0 46.958868,14.14419 58.038171,34.87637 0.155899,-0.30165 0.318834,-0.60052 0.507993,-0.88755 1.804598,-2.73609 4.869794,-4.37505 8.148394,-4.35479 1.158995,-0.006 2.311464,0.19018 3.403007,0.58104 0.55012,0.19978 1.08265,0.4449 1.59125,0.73347 v 8.1e-4 l 0.74698,0.46997 0.539696,0.37349 13.2278321,9.38186 -0.04191,-4.4645 C -9.3639239,127.94108 -16.125637,116.68114 -25.410434,107.03996 -42.623445,89.154465 -66.750307,78.920005 -91.610497,78.920005 Z"
         id="path8" />
      <path
         d="m -32.517391,169.12846 c 0,-32.54926 -26.479018,-59.02628 -59.026286,-59.02628 -32.547283,0 -59.026293,26.47901 -59.026293,59.02628 0,32.54728 26.47901,59.0263 59.026293,59.0263 32.549262,0.0195 59.026286,-26.46356 59.026286,-59.0263 z m -100.208009,0 c 0,-22.70656 18.47565,-41.1822 41.182217,-41.1822 22.706563,0 41.182214,18.47564 41.182214,41.1822 0,22.70656 -18.475651,41.18222 -41.182214,41.18222 -22.726017,0 -41.182217,-18.47765 -41.182217,-41.18222 z"
         id="path10"
         style="fill:#01b3ef;fill-opacity:1;stroke-width:0.49887" />
    </g>
  </g>
  <g
     inkscape:groupmode="layer"
     id="layer3"
     inkscape:label="bluetooth">
    <g
       id="g157"
       transform="matrix(0.23107874,0,0,0.23107874,139.63925,16.362635)"
       style="fill:#01b3ef;fill-opacity:1"
       inkscape:export-filename="/home/roeman/Documents/finalist/project/logo/g12.png"
       inkscape:export-xdpi="96"
       inkscape:export-ydpi="96">
      <path
         d="m 311.81,392.39 c -2.5195,-19.32 -4.9297,-37.352 -6.4414,-51.352 -0.93359,-3.1445 -2.2305,-6.168 -3.8633,-9.0156 -1.7344,-3.2461 -3.1914,-5.0391 -3.3047,-4.1445 -1.5117,11.199 -3.9219,28 -6.4414,49.953 -2.5195,21.953 -4.5352,49 -4.9297,77.055 h 0.004 c -0.11719,3.7773 1.2109,7.457 3.7148,10.289 2.5039,2.832 5.9961,4.6016 9.7578,4.9453 3.7617,0.34766 7.5156,-0.75391 10.496,-3.082 l 0.39062,-0.28125 c 28,-20.719 57.625,-43.734 84,-65.184 l 0.61719,-0.50391 c 3.5195,-2.8984 5.4492,-7.3047 5.1953,-11.859 -0.25391,-4.5547 -2.6602,-8.7188 -6.4844,-11.211 -18.078,-11.762 -36.77,-22.547 -56,-32.312 -16.801,-8.3984 -29.566,-14.559 -38.414,-18.871 -0.95312,-0.44922 0,2.3516 2.0703,6.2148 1.3281,2.668 2.9414,5.1875 4.8164,7.5039 9.1836,8.0078 20.273,18.312 31.922,29.176 7.2227,6.7188 14.84,13.441 22.961,20.047 -15.344,11.199 -31.078,23.352 -46.48,35.391 -1.0117,-11.363 -2.1875,-22.227 -3.5859,-32.758 z"
         id="path67"
         style="fill:#01b3ef;fill-opacity:1" />
      <path
         d="m 139.83,357.89 1.1211,-0.95312 1.8477,-1.3398 3.6953,-2.8008 7.5039,-5.6016 c 9.6328,-7.3906 18.871,-14.617 27.609,-21.617 17.527,-14 33.098,-26.992 47.039,-38.473 5.207,-4.3672 5.6016,-7.5586 0.83984,-7.2227 -5.7539,0.85156 -11.266,2.8906 -16.184,5.9922 -14.727,9.4062 -30.574,19.207 -47.039,29.961 -8.2305,5.6016 -16.801,11.199 -25.367,16.801 l -6.5508,4.5352 -3.3047,2.2969 -1.6797,1.1758 -2.2969,1.793 h -0.004 c -6.3672,5.3203 -10.883,12.523 -12.895,20.574 -2.0156,8.0508 -1.418,16.531 1.6953,24.223 3.3359,8.293 9.3633,15.219 17.117,19.668 7.75,4.4492 16.77,6.1602 25.613,4.8633 4.6094,-0.63672 9.0664,-2.0977 13.16,-4.3125 1.0391,-0.53906 2.0508,-1.1367 3.0234,-1.793 l 1.457,-0.95312 1.0078,-0.72656 4.1445,-2.9102 50.008,-35.504 -1.0625,120.18 v 19.098 11.199 l -0.004,-0.004 c 0.49219,4.7812 1.8008,9.4375 3.8633,13.777 5.293,11.207 15.148,19.594 27.059,23.023 11.906,3.4297 24.715,1.5703 35.156,-5.1055 1.0625,-0.67188 2.0703,-1.3984 3.0234,-2.1289 l 1.9609,-1.5117 3.9766,-3.0234 15.961,-12.152 32.258,-24.586 65.688,-50.398 33.32,-25.535 8.3438,-6.4414 v 0.004 c 4.2305,-3.2344 7.8516,-7.1992 10.695,-11.703 5.8008,-9.2461 7.9766,-20.312 6.1055,-31.066 -1.8711,-10.754 -7.6562,-20.434 -16.242,-27.176 -2.4648,-1.9023 -3.6406,-2.6328 -5.1523,-3.6406 l -4.3672,-3.0234 -8.793,-6.0469 -35.504,-23.801 -52.078,-35.504 53.031,-36.289 35.559,-24.359 8.8477,-6.0469 c 3.5273,-2.3008 6.9297,-4.7852 10.191,-7.4492 9.2539,-8.207 14.629,-19.922 14.82,-32.285 0.19141,-12.363 -4.8203,-24.242 -13.812,-32.73 -0.95312,-0.95312 -2.0156,-1.793 -3.0781,-2.6328 l -2.2383,-1.7344 -8.1211,-6.4961 -33.602,-25.594 -65.688,-50.398 -32.199,-24.25 -15.848,-12.094 -3.8633,-3.0234 c -1.875,-1.4609 -3.8594,-2.7695 -5.9375,-3.9219 -10.77,-5.918 -23.559,-6.9414 -35.129,-2.8086 -11.574,4.1328 -20.82,13.023 -25.406,24.426 -1.7812,4.4062 -2.8047,9.082 -3.0234,13.832 v 5.6016 23.746 l 1.1211,119.28 -53.539,-37.973 -2.1836,-1.5117 -3.0234,-1.9023 v -0.004 c -2.0586,-1.168 -4.2148,-2.1602 -6.4414,-2.9688 -4.418,-1.582 -9.082,-2.3789 -13.773,-2.3516 -13.27,-0.082 -25.676,6.5508 -32.98,17.625 -7.3008,11.078 -8.5039,25.098 -3.1953,37.258 1.5898,3.6016 3.7461,6.9297 6.3828,9.8555 1.2695,1.4844 2.6562,2.8711 4.1445,4.1445 l 2.2969,1.793 1.793,1.2891 12.938,8.9023 c 8.457,5.6016 16.801,11.199 24.641,16.406 l 45.246,28.84 h -0.004 c 5.0625,3.1992 10.828,5.1211 16.801,5.6016 3.4141,0 2.6328,-3.2461 -1.9023,-7 -13.328,-11.199 -28,-23.297 -44.801,-36.793 -8.5508,-6.6445 -17.512,-13.59 -26.883,-20.832 l -14.391,-11.199 -1.6797,-1.2891 -1.1211,-0.95312 c -0.70703,-0.65625 -1.3633,-1.3672 -1.957,-2.125 -1.2266,-1.4922 -2.1914,-3.1758 -2.8594,-4.9844 -1.3477,-3.6797 -1.5,-7.6914 -0.4375,-11.465 1.0664,-3.7695 3.2969,-7.1094 6.375,-9.5352 3.293,-2.5547 7.3711,-3.8828 11.535,-3.7539 2.0898,0.0547 4.1562,0.47266 6.1055,1.2305 0.98828,0.39062 1.9414,0.85938 2.8555,1.4023 l 1.3438,0.89453 2.0703,1.5117 72.07,53.594 h 0.004 c 3.668,2.7109 8.5469,3.1406 12.633,1.1094 4.0859,-2.0312 6.6914,-6.1797 6.7422,-10.742 l 1.3984,-143.079997 v -18.984 l 0.004,-5.0977 v -4.0312 c 0.10547,-1.6797 0.50391,-3.3281 1.1758,-4.8711 1.2812,-3.1953 3.625,-5.8477 6.6328,-7.5195 3.0078,-1.6719 6.4961,-2.2617 9.8867,-1.6641 1.6523,0.28906 3.2422,0.85547 4.7031,1.6797 0.80859,0.45703 1.5742,0.98047 2.2969,1.5664 l 3.9219,3.0781 15.734,12.266 31.922,24.863 65.238,50.733997 33.266,25.816 8.3438,6.4961 1.9609,1.5117 0.95312,0.83984 -0.004,0.004 c 0.61719,0.57812 1.1797,1.2188 1.6797,1.9023 4.1641,5.7578 3.2656,13.738 -2.0742,18.426 -0.61719,0.61719 -4.4258,3.1367 -7.2227,5.0391 l -8.9023,6.0469 -35.617,24.527 -71.68,48.887 v 0.004 c -1.582,1.0859 -2.9453,2.4492 -4.0312,4.0312 -2.3008,3.3711 -3.168,7.5195 -2.4141,11.531 0.75781,4.0117 3.0742,7.5586 6.4453,9.8594 l 70.672,48.16 35.281,24.023 16.801,11.199 -0.004,0.004 c 5.5352,4.3203 6.9336,12.109 3.25,18.086 -0.91797,1.4688 -2.0938,2.7578 -3.4727,3.8086 l -8.1758,6.7188 -33.602,25.703 -65.016,50.684 -31.977,24.922 -15.793,12.32 -3.9219,3.0781 -1.9609,1.5117 -1.0078,0.72656 h 0.004 c -1.4023,0.92969 -2.957,1.6133 -4.5898,2.0156 -3.2812,0.78906 -6.7344,0.4375 -9.7891,-0.99609 -3.0547,-1.4375 -5.5273,-3.8711 -7.0117,-6.8984 -1.6523,-4.082 -2.1953,-8.5234 -1.5664,-12.883 v -19.098 l -1.5117,-144.2 c -0.0117,-4.6875 -2.6719,-8.9688 -6.8672,-11.055 -4.1992,-2.0859 -9.2148,-1.625 -12.957,1.1953 l -68.879,51.297 -4.0898,3.0234 -1.0078,0.78516 -0.67188,0.44922 c -0.41016,0.3125 -0.83984,0.59375 -1.2891,0.83984 -1.7227,1.0312 -3.6211,1.7344 -5.6016,2.0703 -4.0039,0.70703 -8.1289,0.0391 -11.703,-1.9023 -3.4766,-1.9258 -6.2422,-4.9219 -7.875,-8.5469 -1.6367,-3.6211 -2.0547,-7.6758 -1.1953,-11.559 0.75,-3.957 2.7539,-7.5703 5.7109,-10.305 z"
         id="path69"
         style="fill:#01b3ef;fill-opacity:1" />
      <path
         d="m 375.7,170.07 c 3.1094,0.91797 6.3359,1.3516 9.5781,1.2891 3.6953,0 6.0469,-0.39062 5.6016,-1.0625 -7.2812,-7.3359 -17.363,-17.922 -30.914,-30.969 -13.555,-13.047 -30.465,-28.336 -49.168,-43.566 -2.7891,-2.3242 -6.3477,-3.5117 -9.9688,-3.332 -3.625,0.18359 -7.0469,1.7188 -9.5859,4.3086 -2.543,2.5859 -4.0195,6.0352 -4.1328,9.6602 v 0.72656 c -1.0625,38.641 -1.0625,81.816 0,120.73 v 0.73438 c 0.11719,3.4922 1.5,6.8203 3.8906,9.3672 2.3906,2.5469 5.6289,4.1406 9.1055,4.4766 3.4766,0.336 6.957,-0.60547 9.793,-2.6445 18.594,-13.328 35.672,-26.992 49.336,-38.863 13.664,-11.871 24.305,-21.672 31.527,-28.449 0.78516,-0.72656 -2.2383,-1.3984 -6.6094,-1.457 h 0.004 c -2.9336,-0.17188 -5.8789,0.0898 -8.7344,0.78516 l -37.969,18.984 c -6.7578,3.4336 -13.645,7.168 -20.664,11.199 0.33594,-22.062 0.33594,-44.801 0,-66.754 7.0938,4.5547 14.055,8.8125 20.887,12.77 z"
         id="path71"
         style="fill:#01b3ef;fill-opacity:1" />
      <path
         d="m 484.9,319.2 c 1.6094,2.293 3.4883,4.3789 5.6016,6.2148 1.5938,1.8242 3.4883,3.3594 5.6016,4.5391 7.7812,-3.5469 14.277,-9.4141 18.59,-16.801 6.2383,-9.9414 9.5469,-21.441 9.5469,-33.18 0,-11.738 -3.3086,-23.238 -9.5469,-33.18 -4.4766,-7.3711 -11.156,-13.152 -19.094,-16.52 -2.3008,1.3945 -4.3633,3.1562 -6.1055,5.207 -1.7266,1.5586 -3.25,3.3281 -4.5352,5.2617 1.1211,4.9844 3.4727,10.863 5.1523,17.586 3.9961,14.094 3.9961,29.023 0,43.121 -1.7383,6.5508 -4.0898,12.543 -5.2109,17.75 z"
         id="path73"
         style="fill:#01b3ef;fill-opacity:1" />
      <path
         d="m 532.67,357 c 0,0.55859 2.0703,3.5859 5.1523,6.6094 3.0781,3.0234 5.3203,4.5352 5.6016,4.1992 12.004,-7.8828 21.887,-18.594 28.781,-31.191 19.875,-35.129 19.875,-78.105 0,-113.23 -6.9141,-12.57 -16.82,-23.246 -28.84,-31.078 -0.61719,-0.39063 -3.5273,1.8477 -6.4414,4.8711 -2.9102,3.0234 -4.4805,5.1523 -4.1992,5.6016 5.8242,10.391 10.965,21.145 15.402,32.199 5.332,14.344 8.1523,29.496 8.3438,44.801 -0.20312,15.305 -3.0469,30.461 -8.4023,44.797 -4.418,11.133 -9.5625,21.965 -15.398,32.426 z"
         id="path75"
         style="fill:#01b3ef;fill-opacity:1" />
      <text
         xml:space="preserve"
         transform="scale(0.75)"
         id="text9470"
         style="font-size:66.6667px;line-height:1.25;font-family:sans-serif;text-align:end;white-space:pre;shape-inside:url(#rect9472);fill:#01b3ef;fill-opacity:1" />
    </g>
  </g>
</svg>
